<?xml version="1.0" encoding="UTF-8"?>
<svg id="Layer_1" xmlns="http://www.w3.org/2000/svg" xmlns:xlink="http://www.w3.org/1999/xlink" version="1.1" viewBox="0 0 1024 1024">
  <!-- Generator: Adobe Illustrator 29.6.1, SVG Export Plug-In . SVG Version: 2.1.1 Build 9)  -->
  <defs>
    <style>
      .st0 {
        fill: none;
      }

      .st1 {
        fill: #ed2124;
      }

      .st2, .st3, .st4 {
        fill: #1d1d1b;
      }

      .st3 {
        font-size: 343.96px;
      }

      .st3, .st4 {
        font-family: vtksencounter, 'vtks encount(e)r';
      }

      .st4 {
        font-size: 325.05px;
      }

      .st5 {
        opacity: .51;
      }

      .st5, .st6 {
        fill: #68bd45;
      }

      .st7 {
        clip-path: url(#clippath);
      }

      .st8 {
        fill: #f7ec0f;
      }
    </style>
    <clipPath id="clippath">
      <rect class="st0" y="0" width="1024" height="1024"/>
    </clipPath>
  </defs>
  <rect class="st8" width="1024" height="1024"/>
  <rect class="st6" width="1024" height="352.85"/>
  <rect class="st1" y="692.83" width="1024" height="331.17"/>
  <g class="st7">
    <text class="st4" transform="translate(62 324.11) scale(.8 1.06)"><tspan x="0" y="0">FranklY</tspan></text>
    <text class="st3" transform="translate(62 675.84) scale(.85 1)"><tspan x="0" y="0">SKankY</tspan></text>
    <g>
      <path class="st2" d="M213.79,997.64c-3.31,4.19-8.92,5-12.91,1.81l-70.48-77-63.21-.13c-5.9-.7-9.86-6.08-10.19-13.55v-99.91c.45-7.64,4.1-12.71,10.15-13.6l64.18-.09,68.07-74.52c6.24-7.04,16.23-2.43,17.31,8.06v260.99c-.19,2.73-1.41,6.02-2.93,7.94"/>
      <path class="st2" d="M296.79,718.76c8.26-1.52,11.79,7,15.92,14.38,42.28,75.45,42.62,176.75.62,252.52-2.41,4.35-6.6,12.65-10.56,14.27-7.4,3.03-14.96-4.25-13.95-14.1.54-5.26,6.76-13.87,9.28-18.65,34.87-65.92,34.1-152.1-1.5-217.23-2.11-3.86-7.14-10.72-7.91-14.86-1.33-7.14,2.21-15.26,8.08-16.34"/>
      <path class="st2" d="M269.65,753.11c9.41-1.74,14.79,12.43,18.84,21.35,25.19,55.49,23.99,124.36-3.48,178.13-2.09,4.09-4.99,10.49-8.52,12.5-7.39,4.22-15.56-3.04-14.83-13.26.37-5.2,5.74-13.08,8.01-17.89,22.42-47.45,21-105.53-1.99-152.08-3.29-6.66-8.27-11.62-5.8-20.44,1.07-3.82,4.56-7.72,7.78-8.31"/>
      <path class="st2" d="M240.33,790.22c9.15-1.68,12.5,8.43,15.89,17.18,12.39,32,12.91,69.19,1.29,101.69-1.62,4.53-5.31,14.29-8.23,17.22-4.51,4.53-11.27,3.58-14.8-2.17-5.58-9.11.79-16.96,3.79-25.19,8.94-24.51,9.02-52.49.31-77.12-1.66-4.71-6.28-12.86-6.6-17.3-.46-6.41,3.16-13.35,8.34-14.31"/>
      <path class="st2" d="M523.95,997.64c-3.31,4.19-8.92,5-12.91,1.81l-70.48-77-63.21-.13c-5.9-.7-9.86-6.08-10.19-13.55v-99.91c.45-7.64,4.1-12.71,10.15-13.6l64.18-.09,68.07-74.52c6.24-7.04,16.23-2.43,17.31,8.06v260.99c-.19,2.73-1.41,6.02-2.93,7.94"/>
      <path class="st2" d="M606.95,718.76c8.26-1.52,11.79,7,15.92,14.38,42.28,75.45,42.62,176.75.62,252.52-2.41,4.35-6.6,12.65-10.56,14.27-7.4,3.03-14.96-4.25-13.95-14.1.54-5.26,6.76-13.87,9.28-18.65,34.87-65.92,34.1-152.1-1.5-217.23-2.11-3.86-7.14-10.72-7.91-14.86-1.33-7.14,2.21-15.26,8.08-16.34"/>
      <path class="st2" d="M579.82,753.11c9.41-1.74,14.79,12.43,18.84,21.35,25.19,55.49,23.99,124.36-3.48,178.13-2.09,4.09-4.99,10.49-8.52,12.5-7.39,4.22-15.56-3.04-14.83-13.26.37-5.2,5.74-13.08,8.01-17.89,22.42-47.45,21-105.53-1.99-152.08-3.29-6.66-8.27-11.62-5.8-20.44,1.07-3.82,4.56-7.72,7.78-8.31"/>
      <path class="st2" d="M550.5,790.22c9.15-1.68,12.5,8.43,15.89,17.18,12.39,32,12.91,69.19,1.29,101.69-1.62,4.53-5.31,14.29-8.23,17.22-4.51,4.53-11.27,3.58-14.8-2.17-5.58-9.11.79-16.96,3.79-25.19,8.94-24.51,9.02-52.49.31-77.12-1.66-4.71-6.28-12.86-6.6-17.3-.46-6.41,3.16-13.35,8.34-14.31"/>
      <path class="st2" d="M836.16,997.64c-3.31,4.19-8.92,5-12.91,1.81l-70.48-77-63.21-.13c-5.9-.7-9.86-6.08-10.19-13.55v-99.91c.45-7.64,4.1-12.71,10.15-13.6l64.18-.09,68.07-74.52c6.24-7.04,16.23-2.43,17.31,8.06v260.99c-.19,2.73-1.41,6.02-2.93,7.94"/>
      <path class="st2" d="M919.16,718.76c8.26-1.52,11.79,7,15.92,14.38,42.28,75.45,42.62,176.75.62,252.52-2.41,4.35-6.6,12.65-10.56,14.27-7.4,3.03-14.96-4.25-13.95-14.1.54-5.26,6.76-13.87,9.28-18.65,34.87-65.92,34.1-152.1-1.5-217.23-2.11-3.86-7.14-10.72-7.91-14.86-1.33-7.14,2.21-15.26,8.08-16.34"/>
      <path class="st2" d="M892.02,753.11c9.41-1.74,14.79,12.43,18.84,21.35,25.19,55.49,23.99,124.36-3.48,178.13-2.09,4.09-4.99,10.49-8.52,12.5-7.39,4.22-15.56-3.04-14.83-13.26.37-5.2,5.74-13.08,8.01-17.89,22.42-47.45,21-105.53-1.99-152.08-3.29-6.66-8.27-11.62-5.8-20.44,1.07-3.82,4.56-7.72,7.78-8.31"/>
      <path class="st2" d="M862.71,790.22c9.15-1.68,12.5,8.43,15.89,17.18,12.39,32,12.91,69.19,1.29,101.69-1.62,4.53-5.31,14.29-8.23,17.22-4.51,4.53-11.27,3.58-14.8-2.17-5.58-9.11.79-16.96,3.79-25.19,8.94-24.51,9.02-52.49.31-77.12-1.66-4.71-6.28-12.86-6.6-17.3-.46-6.41,3.16-13.35,8.34-14.31"/>
    </g>
  </g>
  <rect class="st5" y="0" width="1024" height="1024"/>
</svg>